#!OML:ASF H:\Terrain\Patient Classification 1\Terrain2\Thursday\justin.ASF
:FULLY-SPECIFIED
:DEGREES
3068
root 19.5879 20.562 -9.42 -183.504 -67.5986 -175.136
lowerback 7.86481 -0.37498 0.748391
upperback 3.75577 -0.618588 3.9184
thorax -0.487815 -0.427091 3.68024
lowerneck -12.8269 2.41012 -8.51446
upperneck 40.5453 2.95217 1.62863
head 16.6272 -0.710853 2.50632
rclavicle -3.81667e-014 3.18055e-015
rhumerus -31.4742 -15.9873 -75.4087
rradius 28.6605
rwrist -9.80095
rhand -20.7313 13.1658
rfingers 7.12502
rthumb 5.63375 -16.7393
lclavicle -3.81667e-014 3.18055e-015
lhumerus -34.3148 3.67247 84.4419
lradius 41.3615
lwrist 6.37393
lhand -19.38 22.0962
lfingers 7.12502
lthumb 6.93836 51.9625
rfemur -18.845 -8.95882 20.3531
rtibia 53.8016
rfoot -20.4752 -11.4021
rtoes 5.79725
lfemur -12.9215 2.74613 -20.5475
ltibia 33.0768
lfoot -15.4754 -6.03272
ltoes 18.9963
3069
root 19.5782 20.5569 -9.45136 -184.606 -68.4771 -173.957
lowerback 7.90153 -0.442069 1.06896
upperback 3.71391 -0.683322 3.99155
thorax -0.549836 -0.456577 3.58143
lowerneck -12.9244 2.35552 -8.71368
upperneck 40.5571 2.90302 1.80212
head 16.6531 -0.730233 2.61569
rclavicle -6.50026e-014 7.15625e-015
rhumerus -31.5656 -15.261 -75.8194
rradius 28.8448
rwrist -10.3635
rhand -21.0401 13.1385
rfingers 7.12502
rthumb 5.33561 -16.7743
lclavicle -6.50026e-014 7.15625e-015
lhumerus -34.2663 3.82447 84.1481
lradius 40.988
lwrist 6.11769
lhand -19.0211 21.7939
lfingers 7.12502
lthumb 7.28475 51.6485
rfemur -18.7526 -8.35109 20.862
rtibia 53.3487
rfoot -21.0906 -10.6951
rtoes 2.13058
lfemur -13.0251 2.217 -20.0257
ltibia 33.3329
lfoot -15.6357 -6.47403
ltoes 20.0705
3070
root 19.5679 20.544 -9.48441 -184.906 -69.3842 -173.711
lowerback 7.94386 -0.593134 0.951717
upperback 3.73242 -0.890941 3.98984
thorax -0.540987 -0.561545 3.6636
lowerneck -13.0553 2.35427 -8.98595
upperneck 40.5343 2.96247 1.97921
head 16.6589 -0.714141 2.75727
rclavicle -1.90833e-014 2.3059e-014
rhumerus -31.4741 -13.7642 -76.5621
rradius 29.0383
rwrist -11.7155
rhand -21.7269 13.3375
rfingers 7.12502
rthumb 4.67249 -16.591
lclavicle -1.90833e-014 2.3059e-014
lhumerus -34.2499 4.40831 83.7423
lradius 40.6359
lwrist 5.9358
lhand -18.6264 21.2869
lfingers 7.12502
lthumb 7.66578 51.128
rfemur -18.576 -7.78433 20.9392
rtibia 52.8928
rfoot -21.909 -9.50641
rtoes 1.17615
lfemur -13.0724 2.22274 -19.8888
ltibia 33.5066
lfoot -15.5316 -7.38361
ltoes 21.0169
3071
root 19.5466 20.5377 -9.51082 -184.236 -70.2222 -174.458
lowerback 7.86496 -0.826315 0.464215
upperback 3.72477 -1.23277 4.00428
thorax -0.475454 -0.736729 3.9807
lowerneck -13.1042 2.48622 -9.28242
upperneck 40.5588 3.32539 1.84306
head 16.6587 -0.631025 2.80944
rclavicle 3.24019e-014 -4.77083e-015
rhumerus -31.3595 -12.5494 -77.0234
rradius 29.0817
rwrist -12.3488
rhand -22.0916 13.397
rfingers 7.12502
rthumb 4.32036 -16.5389
lclavicle 3.24019e-014 -4.77083e-015
lhumerus -34.4259 5.55903 83.365
lradius 40.3507
lwrist 5.85017
lhand -18.3573 21.3006
lfingers 7.12502
lthumb 7.92545 51.132
rfemur -18.3957 -7.24736 20.5461
rtibia 52.3909
rfoot -22.5882 -7.5119
rtoes 2.42841
lfemur -13.1137 2.47682 -20.1949
ltibia 33.6559
lfoot -15.4247 -8.2388
ltoes 21.2817
3072
root 19.5237 20.5388 -9.53241 -184.14 -71.0938 -174.496
lowerback 7.75996 -0.948474 0.375077
upperback 3.6377 -1.39339 3.99009
thorax -0.495276 -0.813686 4.02757
lowerneck -13.0509 2.5138 -9.35192
upperneck 40.5732 3.43733 1.72922
head 16.6496 -0.61009 2.78882
rclavicle -2.24627e-014 -5.56597e-015
rhumerus -31.5409 -12.5174 -77.0597
rradius 29.2459
rwrist -11.7924
rhand -21.8996 12.9837
rfingers 7.12502
rthumb 4.50568 -16.9483
lclavicle -2.24627e-014 -5.56597e-015
lhumerus -34.5057 6.08879 83.0998
lradius 40.0266
lwrist 5.85085
lhand -18.1149 21.4748
lfingers 7.12502
lthumb 8.15947 51.2972
rfemur -18.3127 -6.79322 20.4157
rtibia 51.7892
rfoot -22.8913 -5.57369
rtoes 3.10239
lfemur -13.2445 2.46713 -20.2455
ltibia 33.8431
lfoot -15.4608 -8.91655
ltoes 19.7229
3073
root 19.5062 20.5556 -9.55931 -185.071 -71.9684 -173.445
lowerback 7.69639 -0.836532 0.718734
upperback 3.55416 -1.2103 3.84413
thorax -0.569645 -0.711199 3.66567
lowerneck -12.9004 2.29816 -8.95331
upperneck 40.4718 2.93988 1.87654
head 16.5941 -0.713642 2.70202
rclavicle -1.41137e-014 7.95139e-015
rhumerus -31.9447 -13.161 -77.2137
rradius 29.5427
rwrist -11.447
rhand -21.6923 12.7552
rfingers 7.12502
rthumb 4.70588 -17.1726
lclavicle -1.41137e-014 7.95139e-015
lhumerus -34.4601 5.06095 82.9862
lradius 39.9045
lwrist 6.41131
lhand -17.9627 21.6943
lfingers 7.12502
lthumb 8.30636 51.511
rfemur -18.208 -6.10414 20.7269
rtibia 51.0861
rfoot -23.3757 -4.28036
rtoes 3.29591
lfemur -13.2995 1.50038 -19.7708
ltibia 34.0266
lfoot -15.1454 -9.8224
ltoes 24.7706
3074
root 19.4914 20.5691 -9.58946 -186.002 -72.7641 -172.428
lowerback 7.67535 -0.642079 1.07152
upperback 3.48141 -0.916205 3.64749
thorax -0.659588 -0.553148 3.23835
lowerneck -12.7912 2.00266 -8.60505
upperneck 40.4131 2.29113 2.1487
head 16.5788 -0.87348 2.65655
rclavicle -1.76918e-014 3.49861e-014
rhumerus -32.2807 -13.7175 -77.5005
rradius 29.633
rwrist -11.6419
rhand -21.6296 12.7206
rfingers 7.12502
rthumb 4.76647 -17.2058
lclavicle -1.76918e-014 3.49861e-014
lhumerus -34.4926 3.56629 82.9227
lradius 39.9494
lwrist 7.02738
lhand -17.788 22.079
lfingers 7.12502
lthumb 8.4749 51.889
rfemur -18.0935 -5.27287 21.0628
rtibia 50.3734
rfoot -24.0707 -3.60615
rtoes 1.68966
lfemur -13.2853 0.0187109 -19.2847
ltibia 34.1949
lfoot -14.8893 -10.4934
ltoes 32.0054
